<svg width="390" height="244" viewBox="0 0 390 244" fill="none" xmlns="http://www.w3.org/2000/svg">
<rect x="243.625" y="243.625" width="243.625" height="243.625" transform="rotate(-90 243.625 243.625)" fill="#EE6C6C"/>
<path d="M243.625 243.625L243.625 0.000137329C378.175 0.000131448 487.25 109.075 487.25 243.625L243.625 243.625Z" fill="#FFA3B3"/>
<path d="M243.625 243.625C109.075 243.625 -4.7678e-06 134.55 -1.06492e-05 0.000137329L243.625 0.00012668L243.625 243.625Z" fill="#FFC464"/>
<path d="M243.625 243.623L243.625 182.716C277.263 182.716 304.531 209.985 304.531 243.623L243.625 243.623Z" fill="#A95094"/>
<path d="M243.626 182.719L243.626 121.812L304.532 121.812C304.532 155.45 277.264 182.719 243.626 182.719Z" fill="#A95094"/>
<path d="M304.532 243.625C304.532 209.987 331.801 182.719 365.438 182.719L365.438 243.625L304.532 243.625Z" fill="#A95094"/>
<path d="M365.438 182.719C331.801 182.719 304.532 155.45 304.532 121.812L365.438 121.812L365.438 182.719Z" fill="#A95094"/>
</svg>
