<svg width="182" height="273" viewBox="0 0 182 273" fill="none" xmlns="http://www.w3.org/2000/svg">
<rect width="181.993" height="181.993" transform="matrix(-1 0 0 1 181.994 90.9932)" fill="#A284E8"/>
<path d="M181.994 272.986C181.994 172.474 100.512 90.9932 0.000427246 90.9932V272.986H181.994Z" fill="#FFC464"/>
<path d="M90.9966 -0.00244141H45.4983C45.4983 25.1256 65.8686 45.4959 90.9966 45.4959V-0.00244141Z" fill="#EE6C6C"/>
<path d="M45.4985 -0.00292969H0.000205994V45.4954C25.1282 45.4954 45.4985 25.1251 45.4985 -0.00292969Z" fill="#EE6C6C"/>
<path d="M90.9971 45.4956C65.8691 45.4956 45.4987 65.8659 45.4987 90.9939H90.9971V45.4956Z" fill="#EE6C6C"/>
<path d="M45.4985 90.9939C45.4985 65.8659 25.1282 45.4956 0.000205994 45.4956V90.9939H45.4985Z" fill="#EE6C6C"/>
</svg>
