<svg width="144" height="897" viewBox="0 0 144 897" fill="none" xmlns="http://www.w3.org/2000/svg">
<rect y="448.5" width="448.5" height="448.5" fill="#EE6C6C"/>
<path d="M0 448.5L448.5 448.5L448.5 537C448.5 735.822 287.323 897 88.5 897L7.84182e-05 897L0 448.5Z" fill="#FFA3B3"/>
<path d="M-5.91259e-05 360C-9.38891e-05 161.177 161.177 -2.81812e-05 360 -6.29444e-05L448.5 -7.84182e-05L448.5 448.5L-4.36521e-05 448.5L-5.91259e-05 360Z" fill="#FFC464"/>
<path d="M0.00427246 448.5L112.129 448.5L112.129 470.625C112.129 520.331 71.8349 560.625 22.1293 560.625L0.00429207 560.625L0.00427246 448.5Z" fill="#A95094"/>
<path d="M112.125 448.502L224.25 448.502L224.25 560.627L202.125 560.627C152.419 560.627 112.125 520.333 112.125 470.627L112.125 448.502Z" fill="#A95094"/>
<path d="M0 560.627L22.125 560.627C71.8306 560.627 112.125 600.922 112.125 650.627L112.125 672.752L1.96046e-05 672.752L0 560.627Z" fill="#A95094"/>
<path d="M112.125 650.627C112.125 600.922 152.419 560.627 202.125 560.627L224.25 560.627L224.25 672.752L112.125 672.752L112.125 650.627Z" fill="#A95094"/>
</svg>
