<?xml version="1.0" standalone="no"?>
<!DOCTYPE svg PUBLIC "-//W3C//DTD SVG 20010904//EN"
 "http://www.w3.org/TR/2001/REC-SVG-20010904/DTD/svg10.dtd">
<svg version="1.0" xmlns="http://www.w3.org/2000/svg"
 width="1000.000000pt" height="1000.000000pt" viewBox="0 0 1000.000000 1000.000000"
 preserveAspectRatio="xMidYMid meet">
<metadata>
Created by potrace 1.14, written by Peter Selinger 2001-2017
</metadata>
<g transform="translate(0.000000,1000.000000) scale(0.100000,-0.100000)"
fill="#000000" stroke="none">
<path d="M3869 9996 c-2 -2 -31 -7 -64 -11 -101 -11 -129 -15 -145 -20 -8 -2
-31 -7 -50 -10 -19 -3 -71 -15 -115 -26 -44 -12 -84 -22 -90 -23 -5 -2 -17 -6
-25 -9 -8 -3 -57 -20 -108 -37 -51 -17 -126 -47 -166 -66 -41 -18 -79 -34 -85
-34 -6 0 -11 -3 -11 -7 0 -5 -19 -17 -43 -28 -23 -10 -66 -34 -95 -52 -29 -18
-56 -33 -60 -33 -5 0 -17 -8 -28 -17 -10 -10 -39 -31 -64 -47 -118 -77 -292
-230 -410 -361 -111 -124 -183 -224 -297 -410 -23 -38 -133 -259 -133 -268 0
-5 -7 -23 -14 -40 -20 -42 -66 -176 -72 -206 -3 -14 -7 -28 -10 -33 -3 -5 -8
-21 -11 -36 -3 -15 -6 -31 -7 -37 -2 -5 -6 -28 -11 -50 -4 -22 -10 -44 -13
-49 -3 -5 -7 -23 -8 -40 -2 -17 -10 -76 -18 -131 -12 -85 -14 -701 -15 -4008
l-1 -3908 122 6 c68 3 134 8 148 9 14 2 48 7 75 10 28 4 57 9 65 11 8 2 31 7
50 10 110 18 334 85 439 131 29 13 60 24 67 24 8 0 14 5 14 10 0 6 6 10 13 10
26 0 336 173 357 199 3 4 18 15 35 25 35 23 30 19 120 93 158 130 274 249 395
410 32 43 64 83 70 90 5 7 10 14 10 17 0 5 37 64 57 91 5 6 20 33 34 60 15 28
41 76 58 107 17 31 31 64 31 72 0 9 5 16 10 16 6 0 10 8 10 18 0 10 6 26 13
37 7 11 19 40 27 65 7 25 17 50 20 55 4 6 13 28 19 50 7 22 15 47 19 55 3 8 7
22 8 30 1 8 11 49 22 90 20 74 33 136 38 175 1 11 7 54 13 95 11 76 24 239 21
275 -1 11 -1 26 -1 33 1 16 1 32 1 95 0 28 1 73 1 99 1 25 -2 51 -6 57 -3 6
-1 11 5 11 6 0 8 5 5 11 -4 6 -7 33 -6 60 1 27 1 71 2 98 1 27 -2 54 -5 60 -4
5 -2 12 3 15 6 4 6 18 1 35 -4 15 -4 34 0 41 4 7 4 26 0 41 -5 16 -5 31 0 34
5 3 5 18 1 33 -5 15 -5 36 -1 47 4 11 4 32 -1 47 -4 15 -4 30 1 33 5 3 5 18 1
33 -4 15 -5 38 -1 52 4 14 3 37 -1 52 -4 15 -4 30 1 33 5 3 5 18 2 33 -4 15
-6 41 -5 57 6 60 5 124 -2 134 -3 6 -1 11 5 11 6 0 8 5 5 11 -4 6 -7 33 -6 60
1 27 1 71 2 98 1 27 -2 54 -6 60 -3 6 -2 11 3 11 5 0 7 11 4 25 -3 19 0 25 14
25 109 -1 505 9 524 13 14 3 45 8 70 11 55 7 95 14 135 23 42 10 45 10 48 12
1 1 17 4 35 7 18 2 59 12 90 23 32 10 73 22 92 26 19 4 40 11 45 15 6 4 28 13
50 20 22 7 45 15 50 19 6 3 12 6 15 7 63 12 358 175 473 261 31 24 61 43 67
43 5 0 13 6 17 13 4 6 31 30 58 52 28 22 100 89 161 150 104 104 141 146 213
240 17 22 34 45 39 50 62 80 191 305 246 431 45 102 115 298 122 344 3 14 8
34 11 45 4 11 8 25 9 30 1 6 5 21 8 35 10 49 16 75 21 100 8 43 17 113 20 165
2 28 5 50 5 50 1 0 4 45 6 99 6 109 1 119 -47 106 -16 -5 -31 -5 -34 0 -3 4
-20 4 -39 0 -19 -4 -40 -4 -46 0 -7 4 -25 4 -40 0 -15 -4 -33 -4 -40 0 -7 4
-24 5 -38 1 -14 -4 -47 -4 -74 -1 -26 4 -53 3 -60 -1 -6 -4 -22 -3 -34 1 -13
5 -25 6 -28 1 -3 -4 -28 -5 -56 -1 -28 4 -53 3 -55 0 -3 -4 -22 -4 -43 0 -21
3 -47 3 -58 0 -10 -4 -22 -2 -26 4 -5 6 -8 7 -8 1 0 -6 -30 -8 -81 -5 -44 3
-86 2 -92 -2 -6 -3 -21 -2 -33 2 -13 5 -25 6 -28 1 -3 -4 -28 -5 -56 -1 -28 4
-53 4 -55 0 -2 -4 -25 -4 -49 0 -27 4 -49 3 -56 -4 -7 -7 -10 -6 -10 2 0 9 -5
10 -19 3 -10 -6 -21 -8 -24 -5 -7 7 -146 8 -153 1 -3 -3 -17 -2 -30 3 -13 5
-25 6 -28 1 -3 -4 -28 -5 -56 -1 -28 4 -53 3 -55 0 -3 -4 -22 -4 -43 0 -21 3
-47 3 -58 0 -10 -4 -22 -2 -26 4 -5 6 -8 7 -8 1 0 -6 -30 -8 -81 -5 -44 3 -86
2 -92 -2 -6 -3 -21 -2 -33 2 -13 5 -25 6 -28 1 -3 -4 -28 -5 -56 -1 -28 4 -53
4 -55 0 -2 -4 -25 -4 -49 0 -27 4 -49 3 -56 -4 -7 -7 -10 -6 -10 2 0 9 -5 10
-19 3 -10 -6 -21 -8 -24 -5 -7 7 -146 8 -153 1 -3 -3 -17 -2 -30 3 -13 5 -25
6 -28 1 -3 -4 -28 -5 -56 -1 -28 4 -53 3 -55 -1 -3 -4 -20 -4 -37 0 -18 4 -45
4 -60 0 -23 -6 -29 -3 -35 14 -4 12 -6 27 -4 32 2 6 3 56 2 113 -1 130 -1 127
0 189 1 28 -2 57 -7 64 -4 7 -3 10 2 6 10 -6 11 84 1 100 -4 6 -4 13 0 16 9
10 7 232 -2 247 -5 7 -4 11 1 7 11 -6 10 146 -1 164 -5 6 -4 10 1 6 5 -3 8 76
7 189 l-1 195 76 -1 c71 -1 994 -2 1035 -1 10 0 233 2 495 4 262 3 493 7 512
10 19 4 53 9 75 12 63 10 183 36 265 57 41 11 79 21 85 23 5 1 17 4 25 7 8 3
44 16 80 28 120 42 279 117 403 192 44 26 84 48 89 48 4 0 8 4 8 8 0 4 15 16
33 27 47 27 177 128 177 137 0 4 5 8 10 8 6 0 21 10 34 23 13 12 50 47 82 78
77 73 180 188 241 269 59 78 153 217 154 227 1 5 9 19 19 33 15 22 122 226
126 240 1 6 13 38 24 65 50 123 117 350 125 420 1 17 5 41 9 55 15 66 22 135
31 288 l7 122 -2214 0 c-1218 0 -2217 -2 -2219 -4z"/>
</g>
</svg>
